<?xml version="1.0" encoding="UTF-8"?>
<svg width="211.67mm" height="211.67mm" version="1.1" xmlns="http://www.w3.org/2000/svg" xmlns:cc="http://creativecommons.org/ns#" xmlns:dc="http://purl.org/dc/elements/1.1/" xmlns:rdf="http://www.w3.org/1999/02/22-rdf-syntax-ns#">
 <metadata>
  <rdf:RDF>
   <cc:Work rdf:about="">
    <dc:format>image/svg+xml</dc:format>
    <dc:type rdf:resource="http://purl.org/dc/dcmitype/StillImage"/>
    <dc:title/>
   </cc:Work>
  </rdf:RDF>
 </metadata>
 <path d="m58.334 0c-32.317 0-58.334 26.017-58.334 58.334v683.33c0 32.317 26.017 58.334 58.334 58.334h683.33c32.317 0 58.334-26.017 58.334-58.334v-683.33c0-32.317-26.017-58.334-58.334-58.334h-683.33zm262.15 48.898h0.00195 418.21c11.196-1e-6 20.301 9.1068 20.301 20.303v418.21c0 11.196-9.1048 20.301-20.301 20.301h-318.55c1.9349-3.338 3.6-6.848 4.8848-10.58 0.61854-3.2297 1.0187-6.4728 1.2676-9.7207h70.111c-6.6739-2.36-11.765-8.8743-14.455-19.273-2.223-8.5873-5.0493-18.598-19.615-28.535-3.3395-5.4609-5.9177-11.606-10.15-16.25-3.1007-3.4017-5.5563-6.7086-7.4199-9.9902 23.661-10.544 47.31-21.01 70.975-31.486 1.6308 1.7077 3.2423 3.4322 4.8242 5.1777 10.191 11.252 17.765 11.19 27.986-0.15821 5.7248-6.3542 11.818-12.446 18.273-18.049 17.758-15.393 40.266-12.317 53.441 7.8926 4.4814 6.8719 6.4188 15.413 8.5352 20.717 4.5981 16.89-16.095 33.811-29.98 45.789-9.3486 3.6593-9.9827 19.284-11.805 25.242-3.1518 10.211-8.1204 16.599-14.576 18.924v0.01172h166.3l-0.01368-418.21h-190.87c7.0648 3.0401 6.5156 11.723 6.5156 13.494v1.9277c0 4.3038-2.1355 8.1006-5.3887 10.445 0.36531 0.78158 0.58203 1.6466 0.58203 2.5703v5.5586c0 1.6748-0.4121 3.2375-1.1074 4.6484 3.1568 2.5122 5.1777 6.381 5.1777 10.73v4.8438c4.0145-1.9945 9.1812-3.0606 15.246-3.0606 1.6748 0 3.4042 0.08794 5.1602 0.25 0-3.167 0.46507-6.0318 1.5664-8.4121 7.5215-16.291 39.234-24.035 42.832-24.867 0.19798-0.045471 0.42357-0.083469 0.63672-0.10547 0 0 1.0959-0.10352 2.8418-0.10352 5.4813 0 15.463 1.1058 20.619 8.5156 3.6948 5.3087 3.9627 12.398 0.80078 21.066 2.3498-0.54304 5.482 1.2821 8.248 2.0078 3.2887 0.85772 6.6276 2.5683 9.8809 2.4062 9.0034-0.45173 11.104 2.8086 8.6016 11.645-2.091 7.3998-3.6524 15.336-3.373 22.959 0.66991 19.261 1.7001 38.575 4.1211 57.678 2.3904 18.981 1.3293 37.355 16.443 54.824 2.2839 1.9743-0.11923 6.2561-1.5859 8.7734-0.85259 1.4768-5.1699 2.7183-6.459 1.8555-5.4508-3.5983-10.548-5.8796-16.598-1.5859-0.4872 0.34543-1.408 0.08003-2.418 0.11133-6.0598-0.85264-5.152-5.1225-4.5176-9.6191 1.2587-8.8969 3.5231-17.907 3.0664-26.748-1.6038-30.888-4.2602-61.724-6.3613-92.592-0.5533-8.0798-2.0292-14.911-11.307-17.688-1.7865-0.53799-4.042-3.2508-4.8438-5.4434l-11.564 12.998-5.0879 7.9473c2.2636 4.4865 2.8535 9.0446 1.3359 13.277-0.30453 0.83236-0.6819 1.6332-1.1387 2.3945 15.982 11.094 23.54 25.104 19.363 36.752-1.4922 4.1668-4.3288 7.6191-8.252 10.273 8.6633 9.2014 11.96 19.18 8.8594 27.844-1.5784 4.3951-4.6297 8.0046-8.9082 10.715 8.6277 9.1862 12.009 19.233 8.9082 27.881-3.0908 8.6279-11.81 14.279-24.539 15.893-0.05547 0-0.0971 0.00586-0.1582 0.00586 5.1514 9.7343 5.7834 19.055 1.4492 26.186-4.2632 7.0242-12.481 10.787-23.367 10.787-1.2485 0-2.5379-0.04492-3.8574-0.14648-8.9528-0.68516-18.857-3.695-28.535-8.5469-0.66489 3.3852-2.4158 6.3876-4.8672 8.6309 1.7154 2.4057 2.7363 5.3319 2.7363 8.5039v2.4492c0 4.5373-2.0756 8.6019-5.3086 11.297 0.87295 1.7357 1.4082 3.6656 1.4082 5.7363v1.9336c0 4.314-2.1284 8.1006-5.3867 10.445 0.36549 0.78669 0.58789 1.6474 0.58789 2.5762v5.5664c0 5.8771-4.7924 10.652-10.654 10.652h-10.377c-3.3649 0-6.0918-2.7269-6.0918-6.0918 0-1.0329 0.2804-1.9871 0.73438-2.8398 2.4427-1.0815 4.8784-2.1698 7.3223-3.252h6.877v-3.0488c1.3267-0.58768 2.6455-1.1757 3.9726-1.7637-2.0008-3.94-4.1441-7.775-6.4102-11.516h6.5508c0.39091 0 0.70312-0.31728 0.70312-0.70312v-1.9356c0-0.38568-0.31732-0.70313-0.70312-0.70313h-8.6445c-3.0177-4.7416-6.2436-9.318-9.6602-13.732 0.24503-0.0298 0.48696-0.07422 0.74024-0.07422h19.627c1.3805 0 2.5117-1.136 2.5117-2.5215v-2.4492c0-1.3906-1.1312-2.5215-2.5117-2.5215h-19.627c-2.4361 0-4.5236-1.439-5.498-3.5098-1.1623-1.1114-1.8926-2.6588-1.8926-4.3945 0-3.3649 2.7218-6.0918 6.0918-6.0918h22.225c2.0199 0 3.6602-1.6465 3.6602-3.6562v-2.7793c0-0.48724-0.108-0.94993-0.27539-1.3711-1.0607-0.72581-2.0564-1.4958-3.0664-2.252-0.11181-0.0094-0.21179-0.03125-0.31836-0.03125h-22.225c-0.08651 0-0.15708-0.02825-0.23828-0.03125-2.5732 1.9337-5.2399 3.8018-8.082 5.5273-3.239 1.9692-6.54 3.7137-9.8555 5.2539-3.5182-3.4016-7.17-6.6649-10.922-9.8203 4.6386-1.7545 9.3392-4.0235 13.859-6.7715 7.0495-4.2886 13.314-9.4964 18.074-14.896-4.4662-7.3084-6.3441-14.324-5.6641-20.516-7.3084 6.8414-17.445 12.966-29.656 17.346-7.2373 2.5986-14.547 4.2903-21.525 5.0566-0.27979 0.35863-0.5134 0.70767-0.77734 1.0644-12.884-8.13-26.582-15.065-40.695-20.932-0.99972-7.6597 2.4932-16.076 9.8262-23.883-4.2835-2.7102-7.3298-6.3178-8.9082-10.713-3.1061-8.6634 0.19595-18.637 8.8594-27.838-3.9282-2.6594-6.7598-6.1066-8.252-10.273-4.182-11.648 3.3763-25.663 19.363-36.758-0.45171-0.76128-0.83315-1.5563-1.1328-2.3887-0.67005-1.8677-0.89564-3.8085-0.78906-5.7676l-9.9004-15.459-13.426-15.104c0.0201 0.07116 0.06172 0.14319 0.07422 0.20899 0.45677 2.0606-2.7346 6.6293-5.125 7.3398-9.2776 2.7762-10.758 9.6077-11.301 17.688-2.1062 30.863-4.7518 61.706-6.3555 92.594-0.36348 7.0383 0.97271 14.163 2.1797 21.268-5.7385-1.8156-11.499-3.515-17.283-4.9883-1.7698-0.45921-3.5567-0.84472-5.332-1.2793 6.6978-13.754 6.5213-28.002 8.3691-42.617 2.4158-19.103 3.4449-38.417 4.125-57.678 0.27406-7.623-1.2778-15.559-3.3789-22.959-2.497-8.836-0.39335-12.096 8.6152-11.645 3.238 0.16244 6.5812-1.5486 9.875-2.4062 2.8929-0.75625 6.1842-2.7398 8.5644-1.9531 0.75619 0.25378 1.5672 0.64556 2.3438 1.1328-0.20826-0.31973-0.39897-0.65442-0.53125-1.0098-3.233-8.7548-2.9799-15.901 0.74024-21.25 5.1564-7.4098 15.141-8.5176 20.627-8.5176 1.7357 0 2.8398 0.10547 2.8398 0.10547 0.20811 0.02507 0.4339 0.058016 0.63671 0.10352 3.5933 0.83236 35.311 8.5776 42.832 24.869 1.2284 2.6492 1.6607 5.9036 1.5488 9.502 4.1516-0.86279 8.2311-1.3477 12.104-1.3477 5.7299 0 10.614 0.9803 14.527 2.7617v-4.5371c0-5.8974 3.7346-10.919 8.957-12.857 0.8374-2.365 3.0753-4.0703 5.7246-4.0703h8.834v-4.0234c0-0.04076 0.01172-0.081294 0.01172-0.12109h-11.404c-3.3649 0-6.0918-2.7269-6.0918-6.0918 0-3.3649 2.7269-6.0977 6.0918-6.0977h15.488c0.39093 0 0.70508-0.31339 0.70508-0.69922v-3.7637c-4e-5 -0.38572-0.31923-0.70508-0.70508-0.70508 0 0-19.044 0.95743-20.166-0.39258-2.0606-0.97953-3.4902-3.0592-3.4902-5.4902 0-2.1772 1.2037-4.0002 2.9141-5.0762h-200.23v176.77c-6.755-0.66084-13.52-1.1922-20.301-1.5547v-175.22c0-11.196 9.1049-20.301 20.301-20.301zm178.83 81.211c-4.2835 3e-5 -8.9308 0.67844-13.641 1.9473-2.4463 10.156-7.3195 21.22-11.461 29.559 4.8976-0.36039 10.124-1.4624 15.336-3.3301 8.0646-2.8929 15.297-7.3227 19.85-12.154 3.6998-3.9282 5.3502-7.8457 4.4062-10.475-1.208-3.37-6.8926-5.5469-14.49-5.5469zm69.543 0c-7.5976 0-13.284 2.1769-14.492 5.5469-0.94906 2.629 0.70838 6.5464 4.4082 10.475 4.5525 4.8316 11.788 9.2665 19.848 12.154 2.629 0.94398 5.2577 1.6523 7.8613 2.2207-4.2226-8.6076-9.0275-19.8-11.24-29.895-2.1925-0.29954-4.3445-0.50195-6.3848-0.50195zm-9.8828 28.965c-5.2123 1.284-9.3936 4.0846-10.475 7.084-2.832 7.9326 10.698 22.794 33.055 30.812 10.988 3.9384 22.427 5.5502 31.4 4.4082 7.2982-0.9237 12.417-3.6153 13.701-7.1934 1.8727-5.2225-4.0326-15.428-18.654-24.092-1.35 0.38572-2.7922 0.67942-4.2793 0.91797l-1.7324 2.7129c-0.93387 1.4414-2.5252 2.3144-4.2305 2.3144-0.04071 0-0.07543 3e-3 -0.11523 0-1.7662-0.04062-3.3712-0.9981-4.2441-2.5156-0.32985-0.5684-0.76595-1.3396-1.2734-2.248-5.4559-0.50752-11.165-1.7945-16.793-3.8144-6.07-2.1722-11.639-5.0523-16.359-8.3867zm-49.773 0.00586c-4.7199 3.3344-10.305 6.2086-16.365 8.3809v0.00586c-7.4302 2.6645-15.004 4.0691-21.916 4.0781-0.64964 0-1.2835-0.0382-1.918-0.0664-0.45677 0.82217-0.85243 1.5296-1.1621 2.0625-0.87801 1.5175-2.4803 2.47-4.2363 2.5098-0.03538 4e-3 -0.07739 0.00586-0.11719 0.00586-1.7154 0-3.3068-0.8731-4.2305-2.3144l-1.4024-2.1914c-12.911 8.3285-18.11 17.708-16.334 22.646 1.284 3.5781 6.4049 6.2638 13.703 7.1875 8.973 1.1419 20.423-0.46395 31.4-4.4024 22.367-8.0189 35.889-22.885 33.047-30.812-1.076-3.0045-5.2564-5.8109-10.469-7.0898zm3.4355 39.586c-6.1004 4.182-13.362 7.89-21.533 10.818-10.171 3.6491-20.493 5.5469-29.826 5.5469-2.6594 0-5.2491-0.15602-7.7207-0.4707-0.8476-0.10661-1.6313-0.27371-2.4434-0.41602-7.7752 6.4963-11.839 13.596-10.205 18.158 1.284 3.5781 6.403 6.2696 13.701 7.1934 8.973 1.1419 20.417-0.46899 31.395-4.4023 22.367-8.0189 35.897-22.88 33.055-30.812-0.99986-2.771-3.5645-4.5139-6.4219-5.6152zm42.893 0c-2.8675 1.0963-5.4349 2.8442-6.4297 5.6152-2.832 7.9275 10.698 22.794 33.055 30.812 10.988 3.9384 22.416 5.5442 31.395 4.4023 7.2982-0.92371 12.425-3.6094 13.709-7.1875 1.6393-4.5626-2.4181-11.668-10.219-18.164-0.80695 0.14203-1.5899 0.30944-2.4375 0.41602-2.4665 0.31468-5.0593 0.4707-7.7188 0.4707-9.3283 0-19.657-1.8978-29.828-5.5469-8.1661-2.9284-15.43-6.6363-21.525-10.818zm-43.953 38.412c-6.0091 4.0602-13.105 7.6544-21.078 10.512-10.176 3.6491-20.501 5.5527-29.834 5.5527-2.6594 0-5.2491-0.15602-7.7207-0.4707-0.50246-0.06081-0.9569-0.1703-1.4492-0.2461-7.9935 6.5673-12.261 13.797-10.586 18.477 1.279 3.578 6.403 6.2716 13.701 7.1953 8.973 1.142 20.417-0.47492 31.395-4.4082 22.367-8.0189 35.897-22.882 33.055-30.814-0.87295-2.4361-3.5491-4.457-7.4824-5.7969zm45 0c-3.9384 1.3399-6.5935 3.3608-7.4766 5.7969-2.832 7.9326 10.698 22.796 33.055 30.814 10.988 3.9384 22.416 5.5502 31.395 4.4082 7.2982-0.9237 12.43-3.6173 13.709-7.1953 1.6799-4.6794-2.5882-11.909-10.592-18.477-0.49739 0.07648-0.93861 0.1803-1.4512 0.2461-2.4767 0.31467-5.0664 0.4707-7.7207 0.4707-9.3384 0-19.65-1.9036-29.82-5.5527-7.9783-2.8573-15.078-6.4566-21.098-10.512zm-8.5664 31.773c0.68004 6.1918-1.1916 13.207-5.668 20.516 4.7707 5.4051 11.023 10.608 18.072 14.896 9.9728 6.0649 20.858 9.925 29.877 10.615 7.349 0.54812 12.892-1.0487 14.871-4.2969 2.4868-4.0957 0.11139-11.527-5.9688-19.328-6.9784-0.76638-14.282-2.4581-21.52-5.0566-12.216-4.385-22.366-10.504-29.664-17.346zm-279.66 3.0137h4.8438c171.66 0 227.35 86.01 227.35 86.01l-87.629 38.773s7.6319-57.348-5.2461-57.348c-17.449 0.62986-9.2871 145.53-9.2871 152.65 0 0-29.716 47.648-125.19 47.648h-4.8438c-95.517 0-125.18-46.84-125.18-46.84 0-7.0697 8.1162-155.22-9.2871-155.87-12.924 0-5.2539 58.553-5.2539 58.553l-87.627-37.561s55.701-86.01 227.35-86.01zm390.54 6.1192c2.3645 0.02714 5.0326 2.3893 7.5449 3.6074 3.0654 1.487 6.014 3.8124 9.2266 4.2793 8.9274 1.3094 10.348 4.9179 6.2012 13.109-3.4918 6.8516-6.5574 14.334-7.7754 21.855-3.0705 19.027-5.818 38.181-7.168 57.391-1.345 19.088-11.071 70.965 0.35351 91.037 1.8525 2.3752-1.3382 6.1146-3.2617 8.2969-1.1267 1.2841-5.5987 1.6588-6.7051 0.5625-4.6438-4.5881-9.1964-7.8162-15.967-4.7812-0.5532 0.24869-1.3928-0.18808-2.3926-0.35547-5.7756-2.0149-4.0687-6.0278-2.5664-10.316 2.969-8.4807 12.059-50.938 13.328-59.703 4.4358-30.614 7.835-61.382 11.773-92.066 1.0303-8.029 0.91541-15.016-7.6465-19.543-2.2129-1.1622-4.4523-6.2636-3.5996-8.1973 1.1064-2.5326 5.1506-4.7729 8.1856-5.1484 0.15479-0.01999 0.31111-0.02915 0.46875-0.02734zm-465.66 81.104c-8.4087 0-14.939 6.9629-14.939 15.35-1e-5 8.3641 6.5308 14.938 14.939 14.938 8.3532 0 15.348-6.5734 15.348-14.938 0-8.3867-6.9944-15.35-15.348-15.35zm155.07 0c-8.364 0-15.348 6.9629-15.348 15.35 0 8.3641 6.9836 14.938 15.348 14.938 8.4092 0 14.938-6.5734 14.938-14.938 0-8.3867-6.5284-15.35-14.938-15.35zm-67.92 52.816c-2.7291-0.02662-4.3652 0.08593-4.3652 0.08593h-7.2676s-1.6677-3e-3 -4.4453 0v-0.00585c-8.3345 0.00901-26.53 1.28-39.574 10.5-17.493 12.237 42.807 31.094 42.807 31.094l4.4453 1.2129 4.8438-0.80274s60.199-19.261 42.807-31.498c-13.052-9.1953-31.063-10.507-39.25-10.586zm226.7 6.5644c-2.2069 0.15538-4.5124 1.3544-6.957 3.1641-7.7346 5.7198-8.4545 16.086-1.3594 24.795 9.2471 13.165 51.612 22.924 68.66 2.3692 4.5119-3.644 6.2146-12.742 6.123-19.34-0.04563-3.5933-5.9923-8.2795-10.291-10.127-2.0352-0.87295-6.9121 3.2672-9.668 5.9824-5.0651 5.0093-9.1116 11.108-14.461 15.752-1.822 1.5885-7.4744 1.5459-9.2559-0.07812-5.5066-5.0347-10.748-10.724-14.682-17.027-2.3067-3.6999-4.6792-5.3169-7.1699-5.4902-0.31134-0.02165-0.62418-0.0222-0.93946 0zm63.436 43.854c-0.46844-0.02544-0.99364 0.00499-1.5976 0.09179-4.8367 0.6902-7.3774 6.2155-10.971 9.4941 2.1417 1.7052 4.9496 5.2603 6.3047 4.7832 4.3545-1.5428 8.1722-4.5902 14.836-8.6758-4.8182-2.7622-5.2932-5.5147-8.5723-5.6934zm-71.256 0.14062c-3.8978 0.03043-3.5925 3.9794-5.4551 6.1465 4.0399 2.8117 7.9107 5.9906 12.275 8.1426 0.96432 0.47705 3.7121-2.662 7.8535-5.834-6.1715-3.7404-10.776-8.4802-14.674-8.4551zm35.092 15.084c-5.1977 0.03491-10.391 1.8076-15.826 5.2969-3.3547 2.157-6.5837 3.663-9.6543 4.5664h51.396c-3.1619-0.93379-6.5145-2.4798-10.072-4.7383-5.4483-3.4561-10.646-5.1598-15.844-5.125zm-357.66 62.105 95.967 85.613 92.783-85.613c73.214 19.674 123.44 67.827 123.44 154.11v57.34h-436.44v-56.943c0.70266-86.282 51.03-134.83 124.24-154.51zm213.04 89.598c-10.82 0-19.916 8.6913-19.916 19.512v12.344h-12.342c-10.82 0-19.91 9.0878-19.91 19.908s9.0897 19.512 19.91 19.512h12.342v12.748c0 10.82 9.0956 19.512 19.916 19.512 10.82 0 19.512-8.6913 19.512-19.512v-12.748h12.342c10.82 0 19.91-8.6913 19.91-19.512s-9.0897-19.908-19.91-19.908h-12.342v-12.344c0-10.82-8.6913-19.512-19.512-19.512z" fill="#59f" fill-rule="evenodd" stroke-width="1.0335"/>
</svg>
